<?xml version="1.0" encoding="UTF-8" standalone="no"?>
<!DOCTYPE svg PUBLIC "-//W3C//DTD SVG 1.1//EN" "http://www.w3.org/Graphics/SVG/1.1/DTD/svg11.dtd">
<svg width="100%" height="100%" viewBox="0 0 1024 240" version="1.1" xmlns="http://www.w3.org/2000/svg" xmlns:xlink="http://www.w3.org/1999/xlink" xml:space="preserve" xmlns:serif="http://www.serif.com/" style="fill-rule:evenodd;clip-rule:evenodd;stroke-linejoin:round;stroke-miterlimit:2;">
    <g transform="matrix(1,0,0,1,-411.726,-84.5009)">
        <g transform="matrix(200,0,0,200,667.281,255.896)">
            <path d="M0.618,0L0.568,0L0.568,-0.351L0.151,-0.351L0.151,0L0.101,0L0.101,-0.714L0.151,-0.714L0.151,-0.397L0.568,-0.397L0.568,-0.714L0.618,-0.714L0.618,0Z" style="fill:rgb(66,184,131);fill-rule:nonzero;"/>
        </g>
        <g transform="matrix(200,0,0,200,811.129,255.896)">
            <path d="M0.287,0L0.237,0L0.237,-0.667L0.005,-0.667L0.005,-0.714L0.519,-0.714L0.519,-0.667L0.287,-0.667L0.287,0Z" style="fill:rgb(66,184,131);fill-rule:nonzero;"/>
        </g>
        <g transform="matrix(200,0,0,200,915.914,255.896)">
            <path d="M0.62,0L0.57,0L0.147,-0.634L0.143,-0.634C0.147,-0.558 0.149,-0.501 0.149,-0.463L0.149,0L0.101,0L0.101,-0.714L0.151,-0.714L0.573,-0.081L0.576,-0.081C0.573,-0.14 0.572,-0.195 0.572,-0.248L0.572,-0.714L0.62,-0.714L0.62,0Z" style="fill:rgb(125,125,125);fill-rule:nonzero;"/>
        </g>
        <g transform="matrix(200,0,0,200,1060.15,255.896)">
            <path d="M0.445,-0.252L0.155,-0.252L0.055,0L0,0L0.287,-0.717L0.319,-0.717L0.6,0L0.544,0L0.445,-0.252ZM0.173,-0.297L0.428,-0.297L0.331,-0.554C0.323,-0.574 0.313,-0.602 0.302,-0.638C0.293,-0.607 0.283,-0.579 0.273,-0.553L0.173,-0.297Z" style="fill:rgb(125,125,125);fill-rule:nonzero;"/>
        </g>
    </g>
</svg>
